<svg xmlns="http://www.w3.org/2000/svg" viewBox="0 0 184.09 169.64"><defs><style>.cls-1{fill:#ffb600;}.cls-2{fill:#00a336;}.cls-3{fill:#006cc4;}</style></defs><g id="Layer_2" data-name="Layer 2"><g id="Layer_1-2" data-name="Layer 1"><path class="cls-1" d="M51.75,97.59c-22.17,0-46.62,12-51.75,62.17,88.08,39.51,90.37-52.18,90.37-52.18S72,97.59,51.75,97.59Zm-37,53.63c3.46-33.81,19.93-41.87,34.86-41.87,13.64,0,26,6.73,26,6.73S74.07,177.83,14.75,151.22Z"/><path class="cls-2" d="M132.33,97.59c-20.26,0-38.61,10-38.61,10s2.29,91.69,90.37,52.18C179,109.57,154.5,97.59,132.33,97.59ZM108.68,116.2s12.28-6.68,25.83-6.68c14.82,0,31.18,8,34.61,41.58C110.21,177.53,108.68,116.2,108.68,116.2Z"/><path class="cls-3" d="M92,0S13.78,47.82,92,104.35C170.3,47.82,92,0,92,0Zm0,84.68c-48.77-35.22,0-65,0-65S140.81,49.46,92,84.68Z"/></g></g></svg>